PathFileType	4	(X/Y/Z)	C:/Users/beibeiliu/ov580/test_trc/capture2\sequence.7_training_dense_right.trc
DataRate	CameraRate	NumFrames	NumMarkers	Units	OrigDataRate	OrigDataStartFrame	OrigNumFrames
120	120	16	19	mm	120	1	400
Frame#	Time	ThumbCMC			ThumbMCP			ThumbIP			ThumbTip			IndexMCP			IndexPIP			IndexTip			MiddleMCP			MiddlePIP			MiddleTip			RingMCP			RingPIP			RingTip			PinkyMCP			PinkyPIP			PinkyTip			BackHand1			BackHand2			BackHand3	
		X0	Y0	Z0	X1	Y1	Z1	X2	Y2	Z2	X3	Y3	Z3	X4	Y4	Z4	X5	Y5	Z5	X6	Y6	Z6	X7	Y7	Z7	X8	Y8	Z8	X9	Y9	Z9	X10	Y10	Z10	X11	Y11	Z11	X12	Y12	Z12	X13	Y13	Z13	X14	Y14	Z14	X15	Y15	Z15	X16	Y16	Z16	X17	Y17	Z17	X18	Y18	Z18	
0	0	163.707	66.3706	-26.6985	151.096	83.2726	-50.2956	147.407	91.2344	-76.5224	144.458	94.8146	-98.6487	168.701	45.8668	-100.668	138.136	45.0493	-112.701	122.107	52.8534	-87.9377	162.741	24.5802	-102.796	131.031	30.2095	-109.003	124.055	36.5492	-72.1327	154.595	9.41495	-96.3344	124.658	16.3353	-94.3145	126.909	26.5417	-60.8275	150.869	-3.92529	-84.1625	122.843	5.46598	-81.2432	127.384	18.3628	-52.4316	185.528	10.1547	-47.8497	188.85	14.9268	-15.7527	189.196	43.4783	-33.9207	
1	0.00833333	168.408	67.9946	-32.7563	157.011	80.7865	-49.8174	155.209	91.2343	-78.7053	151.94	100.593	-97.1851	167.834	45.512	-100.833	137.119	50.5967	-111.763	127.632	55.028	-79.1096	161.706	28.4054	-101.929	127.768	36.1995	-103.676	127.791	42.1236	-67.7797	150.468	13.2063	-97.6714	122.181	16.3071	-92.0458	130.044	31.635	-59.8364	146.66	-1.87599	-82.5636	120.09	11.6811	-78.2032	133.571	25.5701	-52.9721	182.515	8.20754	-48.0567	185.517	12.508	-16.3764	191.356	40.9011	-37.6982	
2	0.0166667	171.059	69.3157	-27.9422	161.12	80.47	-52.5366	161.089	93.6442	-77.8482	159.65	99.2934	-98.0687	166.665	45.4436	-100.981	138.798	54.0483	-110.566	129.756	56.521	-76.9575	156.144	29.3431	-104.747	127.177	39.8788	-100.753	132.4	44.3846	-63.6803	147.276	11.6856	-95.374	122.369	23.6902	-90.6023	131.581	32.9333	-58.1763	142.401	0.443629	-83.5006	118.926	14.4368	-75.6378	131.816	27.0822	-51.1834	180.194	5.48487	-48.9755	183.544	7.40917	-18.517	191.685	36.6049	-35.9438	
3	0.025	173.117	69.9094	-30.5853	164.431	83.6635	-49.6842	165.485	93.4206	-78.5512	164.726	103.114	-97.8753	167.265	48.8646	-99.4722	135.135	57.6692	-103.504	133.632	56.4709	-70.6917	154.755	26.5036	-101.693	124.623	39.0908	-95.1932	134.058	42.5555	-61.3478	145.206	15.1524	-95.9455	119.371	28.1189	-83.8985	134.616	34.85	-55.7629	140.961	2.05731	-81.2961	118.53	17.0374	-73.8954	136.722	27.4222	-45.5933	181.502	7.46453	-49.0686	180.915	9.48394	-15.4302	191.488	39.4018	-39.4671	
4	0.0333333	174.758	70.1815	-31.5429	166.129	82.214	-50.2193	168.507	93.9009	-76.4464	168.39	102.555	-97.7781	162.839	47.7204	-101.264	134.461	58.4245	-102.763	135.574	55.8213	-68.0167	157.145	30.4644	-99.0013	124.904	41.9949	-92.2293	134.264	45.9803	-60.0418	146.767	15.0726	-90.7487	120.606	31.6158	-81.2312	137.049	35.105	-51.9686	139.789	0.333372	-78.3041	117.991	21.3984	-68.4495	138.48	25.913	-44.1503	179.674	6.85688	-45.4689	180.997	5.98117	-14.6723	189.595	34.1866	-34.5835	
5	0.0416667	173.569	69.3451	-32.4405	165.856	80.2732	-50.7466	167.852	92.339	-72.3708	169.708	101.465	-94.2792	161.929	51.3105	-99.2786	131.357	55.1093	-96.9906	138.74	60.8918	-63.5855	154.157	28.5188	-97.9262	122.998	39.1809	-92.349	133.709	45.8641	-59.0145	143.012	17.514	-91.9883	117.694	28.2906	-79.8854	134.937	36.0005	-53.0982	135.439	1.62687	-79.4686	117.756	20.249	-69.2081	139.38	25.4363	-39.9326	176.695	2.75659	-47.613	179.711	8.65845	-17.7787	188.655	34.0891	-38.5446	
6	0.05	171.677	67.7711	-31.2861	167.562	84.2602	-49.4398	170.723	96.8206	-75.0395	170.798	105.604	-93.4751	159.804	51.0495	-98.8875	130.228	60.4368	-95.3518	137.65	54.1813	-62.8706	153.302	31.7945	-98.9583	123.092	41.3202	-91.2997	135.454	44.678	-57.0217	140.669	14.0093	-91.5385	116.848	27.3259	-77.7575	134.033	32.8704	-49.8287	138.61	2.41766	-77.6588	116.37	18.7204	-63.7218	139.863	24.4328	-39.3263	179.161	6.59333	-45.6852	180.191	11.8209	-15.9778	188.154	37.2121	-38.3142	
7	0.0583333	171.193	69.3817	-27.5445	167.131	83.3862	-50.1699	169.832	94.9168	-74.5232	171.866	104.395	-95.5582	159.044	52.5296	-99.87	128.636	56.5385	-92.5781	139.434	55.4039	-60.5752	149.705	29.7641	-98.8428	122.068	40.6211	-89.0461	138.621	41.1939	-53.9827	138.643	13.3393	-90.6045	115.885	26.2425	-75.3814	134.206	34.7557	-50.1963	138.792	0.728429	-77.2257	116.434	17.8953	-66.9359	136.249	24.4043	-37.6384	179.73	6.20595	-50.215	180.83	10.9898	-14.2883	189.198	39.4302	-36.0055	
8	0.0666667	170.606	65.4623	-32.6502	166.275	82.5531	-50.6227	168.315	91.7758	-73.6768	170.096	102.888	-94.0192	156.395	49.0202	-99.7811	127.706	56.4294	-94.2685	135.338	53.3716	-62.8901	150.033	27.2648	-98.1995	120.793	38.8385	-86.4824	133.202	42.5097	-57.3058	142.979	13.397	-89.2862	117.049	26.1124	-78.3472	136.074	32.2321	-47.814	136.293	-0.496273	-77.5415	117.225	18.6509	-65.2033	133.503	21.1961	-38.1492	178.315	1.52254	-47.7211	179.488	7.22226	-16.6466	187.246	35.6911	-35.0069	
9	0.075	171.959	67.6342	-28.4477	165.619	81.5378	-51.7308	168.833	91.7554	-74.0309	171.461	101.677	-95.9122	156.446	44.9897	-99.8949	129.693	56.0245	-97.3661	137.99	53.8147	-62.5053	149.127	29.1424	-100.233	120.746	38.1397	-87.1151	133.309	43.2233	-56.723	142.154	11.0401	-88.7577	117.3	25.7225	-78.785	134.481	32.8068	-49.4369	134.612	-3.56556	-76.991	115.695	16.472	-65.2332	134.471	25.2032	-40.5099	177.201	6.14143	-45.4193	178.609	6.67457	-17.315	188.591	32.6037	-33.9582	
10	0.0833333	172.033	63.8422	-31.1583	167.854	81.8698	-53.7377	169.509	93.6973	-75.9402	171.083	100.403	-97.4305	160.563	45.9796	-98.1134	128.905	55.9959	-94.332	135.285	50.666	-63.1525	148.996	25.8472	-98.5001	120.574	34.184	-90.3259	133.977	40.3814	-56.6468	138.634	10.1302	-89.9967	116.332	24.7296	-77.7959	134.07	31.9575	-49.2676	133.956	-4.35843	-76.0372	116.074	16.0979	-65.885	137.45	24.5003	-39.666	177.646	5.1486	-43.3636	180.755	7.59108	-13.2575	186.75	33.4644	-33.6104	
11	0.0916667	171.977	66.231	-27.8562	166.37	76.6817	-52.1417	170.681	90.9422	-79.8908	173.235	101.471	-99.5212	159.366	47.2371	-99.7482	129.455	53.4207	-95.5064	138.64	53.2019	-62.9511	152.882	27.1618	-97.394	121.201	36.4238	-89.7624	135.056	44.131	-57.1354	140.001	10.1595	-90.3178	116.543	23.9437	-77.8371	136.816	32.4427	-50.2796	134.831	1.19534	-78.2634	115.958	18.2276	-63.824	136.79	22.7522	-39.7258	176.772	1.93178	-47.8414	179.793	7.96908	-14.9765	188.179	36.0808	-38.5591	
12	0.1	173.795	68.9732	-29.8328	167.343	78.4319	-53.3222	169.896	90.4163	-75.711	173.331	99.8888	-96.3094	159.239	48.5965	-102.7	130.304	53.8435	-96.5973	135.713	57.3333	-66.4235	149.768	29.2175	-101.1	121.567	36.3536	-87.1156	136.104	41.886	-57.2184	139.956	12.7789	-91.1668	116.581	25.74	-74.8571	137.458	35.0842	-50.8983	134.18	-0.338512	-78.6774	117.579	19.4081	-65.7125	138.806	25.4423	-42.4983	179.973	4.22849	-47.4395	179.791	9.25174	-16.2853	191.09	36.6238	-35.3807	
13	0.108333	172.656	66.426	-32.541	166.958	81.1864	-54.7709	170.408	90.3094	-77.991	172.138	101.324	-96.0482	160.53	46.8249	-100.358	130.164	53.7004	-97.9921	139.094	57.0482	-63.7157	152.294	25.4419	-98.5543	122.331	36.541	-91.7087	137.646	42.7542	-56.1048	138.784	12.0824	-91.6147	120.212	29.4627	-79.7817	134.405	34.3811	-51.4216	136.847	-1.88975	-77.2942	118.125	19.6387	-63.7039	137.19	27.3799	-44.1688	180.519	7.46828	-45.4145	181.656	10.7951	-18.2423	191.951	39.6794	-36.2742	
14	0.116667	173.04	71.6658	-33.5858	167.505	87.748	-53.667	170.171	94.6789	-78.7298	173.514	105.001	-102.344	159.4	52.7424	-104.744	130.142	56.465	-97.2662	136.803	60.4522	-66.8989	152.905	33.5445	-100.701	123.247	38.1941	-93.5749	136.034	46.5415	-58.1213	141.387	13.9207	-91.629	118.869	30.9963	-76.6999	139.616	37.4434	-51.3156	139.397	2.42295	-77.9963	116.477	18.0579	-65.6925	140.586	28.7922	-41.9102	180.641	7.82842	-47.46	184.396	16.2888	-17.7515	190.26	42.384	-40.7514	
15	0.125	173.884	77.0341	-34.4627	166.176	89.1523	-54.7969	168.954	100.107	-78.424	170.278	107.704	-98.9832	160.41	57.759	-104.965	130.47	62.5821	-98.6184	136.352	64.8498	-67.4746	151.591	36.9946	-102.579	123.753	46.4517	-91.9533	133.704	51.6689	-59.7284	144.215	22.3174	-94.1689	118.341	28.8808	-80.0614	137.508	38.6275	-50.507	141.02	5.64337	-80.1698	119.185	20.7787	-66.8046	139.896	31.5857	-42.8853	184.017	11.1355	-47.9527	186.367	16.2138	-20.6464	191.071	47.2773	-38.1448	
